<svg width="10" height="15" viewBox="0 0 10 15" fill="none" xmlns="http://www.w3.org/2000/svg">
<g id="la-high-sharp">
<g id="la-high-sharp-g">
<path id="la-high-sharp_2" d="M4.80114 12.1193C4.44318 12.1136 4.08523 12.0455 3.72727 11.9148C3.36932 11.7841 3.04261 11.5639 2.74716 11.2543C2.4517 10.9418 2.21449 10.5199 2.03551 9.98864C1.85653 9.45455 1.76705 8.78409 1.76705 7.97727C1.76705 7.20455 1.83949 6.51989 1.98438 5.9233C2.12926 5.32386 2.33949 4.8196 2.61506 4.41051C2.89063 3.99858 3.22301 3.68608 3.61222 3.47301C4.00426 3.25994 4.44602 3.15341 4.9375 3.15341C5.42614 3.15341 5.8608 3.25142 6.24148 3.44744C6.625 3.64062 6.9375 3.91051 7.17898 4.2571C7.42045 4.60369 7.5767 5.00284 7.64773 5.45455H6.60795C6.51136 5.0625 6.32386 4.73722 6.04545 4.47869C5.76705 4.22017 5.39773 4.09091 4.9375 4.09091C4.26136 4.09091 3.72869 4.38494 3.33949 4.97301C2.95313 5.56108 2.75852 6.38636 2.75568 7.44886H2.82386C2.98295 7.20739 3.17188 7.00142 3.39062 6.83097C3.61222 6.65767 3.85653 6.52415 4.12358 6.4304C4.39063 6.33665 4.6733 6.28977 4.97159 6.28977C5.47159 6.28977 5.92898 6.41477 6.34375 6.66477C6.75852 6.91193 7.09091 7.25426 7.34091 7.69176C7.59091 8.12642 7.71591 8.625 7.71591 9.1875C7.71591 9.72727 7.59517 10.2216 7.35369 10.6705C7.11222 11.1165 6.77273 11.4716 6.33523 11.7358C5.90057 11.9972 5.3892 12.125 4.80114 12.1193ZM4.80114 11.1818C5.15909 11.1818 5.48011 11.0923 5.7642 10.9134C6.05114 10.7344 6.27699 10.4943 6.44176 10.1932C6.60938 9.89205 6.69318 9.55682 6.69318 9.1875C6.69318 8.8267 6.61222 8.49858 6.45028 8.20312C6.29119 7.90483 6.07102 7.66761 5.78977 7.49148C5.51136 7.31534 5.19318 7.22727 4.83523 7.22727C4.56534 7.22727 4.31392 7.28125 4.08097 7.3892C3.84801 7.49432 3.64347 7.6392 3.46733 7.82386C3.29403 8.00852 3.15767 8.22017 3.05824 8.45881C2.95881 8.6946 2.90909 8.94318 2.90909 9.20455C2.90909 9.55114 2.99006 9.875 3.15199 10.1761C3.31676 10.4773 3.54119 10.7202 3.82528 10.9048C4.11222 11.0895 4.4375 11.1818 4.80114 11.1818Z" fill="black"/>
<line id="la-high-sharp-ecl" x1="0.27735" y1="4.58397" x2="9.27735" y2="10.584" stroke="black"/>
<circle id="la-high-sharp-ecl_2" cx="4.5" cy="1.5" r="0.5" fill="black"/>
</g>
</g>
</svg>
