<svg width="7" height="15" viewBox="0 0 7 15" fill="none" xmlns="http://www.w3.org/2000/svg">
<g id="re-high">
<g id="re-high-g">
<path id="re-high_2" d="M0.903409 12V11.233L3.78409 8.07955C4.12216 7.71023 4.40057 7.3892 4.61932 7.11648C4.83807 6.84091 5 6.58239 5.10511 6.34091C5.21307 6.09659 5.26705 5.84091 5.26705 5.57386C5.26705 5.26705 5.19318 5.00142 5.04545 4.77699C4.90057 4.55256 4.7017 4.37926 4.44886 4.2571C4.19602 4.13494 3.91193 4.07386 3.59659 4.07386C3.26136 4.07386 2.96875 4.14347 2.71875 4.28267C2.47159 4.41903 2.27983 4.6108 2.14347 4.85795C2.00994 5.10511 1.94318 5.39489 1.94318 5.72727H0.9375C0.9375 5.21591 1.0554 4.76705 1.29119 4.38068C1.52699 3.99432 1.84801 3.69318 2.25426 3.47727C2.66335 3.26136 3.12216 3.15341 3.63068 3.15341C4.14205 3.15341 4.59517 3.26136 4.99006 3.47727C5.38494 3.69318 5.6946 3.98437 5.91903 4.35085C6.14347 4.71733 6.25568 5.125 6.25568 5.57386C6.25568 5.89489 6.19744 6.20881 6.08097 6.51562C5.96733 6.8196 5.76847 7.15909 5.48438 7.53409C5.20312 7.90625 4.8125 8.3608 4.3125 8.89773L2.35227 10.9943V11.0625H6.40909V12H0.903409Z" fill="black"/>
<circle id="re-high-ecl" cx="3.5" cy="1.5" r="0.5" fill="black"/>
</g>
</g>
</svg>
