<svg width="7" height="15" viewBox="0 0 7 15" fill="none" xmlns="http://www.w3.org/2000/svg">
<g id="mi">
<path id="mi_2" d="M3.85227 12.1193C3.28977 12.1193 2.78835 12.0227 2.34801 11.8295C1.91051 11.6364 1.5625 11.3679 1.30398 11.0241C1.0483 10.6776 0.909091 10.2756 0.886364 9.81818H1.96023C1.98295 10.0994 2.07955 10.3423 2.25 10.5469C2.42045 10.7486 2.64347 10.9048 2.91903 11.0156C3.1946 11.1264 3.5 11.1818 3.83523 11.1818C4.21023 11.1818 4.54261 11.1165 4.83239 10.9858C5.12216 10.8551 5.34943 10.6733 5.5142 10.4403C5.67898 10.2074 5.76136 9.9375 5.76136 9.63068C5.76136 9.30966 5.68182 9.02699 5.52273 8.78267C5.36364 8.53551 5.13068 8.34233 4.82386 8.20312C4.51705 8.06392 4.14205 7.99432 3.69886 7.99432H3V7.05682H3.69886C4.04545 7.05682 4.34943 6.99432 4.6108 6.86932C4.875 6.74432 5.08097 6.56818 5.22869 6.34091C5.37926 6.11364 5.45455 5.84659 5.45455 5.53977C5.45455 5.24432 5.3892 4.98722 5.25852 4.76847C5.12784 4.54972 4.94318 4.37926 4.70455 4.2571C4.46875 4.13494 4.19034 4.07386 3.86932 4.07386C3.56818 4.07386 3.28409 4.12926 3.01705 4.24006C2.75284 4.34801 2.53693 4.50568 2.36932 4.71307C2.2017 4.91761 2.1108 5.16477 2.09659 5.45455H1.07386C1.09091 4.99716 1.22869 4.59659 1.48722 4.25284C1.74574 3.90625 2.08381 3.63636 2.50142 3.44318C2.92188 3.25 3.38352 3.15341 3.88636 3.15341C4.42614 3.15341 4.8892 3.26278 5.27557 3.48153C5.66193 3.69744 5.95881 3.98295 6.16619 4.33807C6.37358 4.69318 6.47727 5.0767 6.47727 5.48864C6.47727 5.98011 6.34801 6.39915 6.08949 6.74574C5.83381 7.09233 5.4858 7.33239 5.04545 7.46591V7.53409C5.59659 7.625 6.02699 7.85937 6.33665 8.23722C6.64631 8.61222 6.80114 9.0767 6.80114 9.63068C6.80114 10.1051 6.67188 10.5312 6.41335 10.9091C6.15767 11.2841 5.80824 11.5795 5.36506 11.7955C4.92188 12.0114 4.41761 12.1193 3.85227 12.1193Z" fill="black"/>
</g>
</svg>
