<svg width="9" height="15" viewBox="0 0 9 15" fill="none" xmlns="http://www.w3.org/2000/svg">
<g id="re-n-sharp">
<g id="re-n-sharp-g">
<path id="re-n-sharp_2" d="M1.90341 12V11.233L4.78409 8.07955C5.12216 7.71023 5.40057 7.3892 5.61932 7.11648C5.83807 6.84091 6 6.58239 6.10511 6.34091C6.21307 6.09659 6.26705 5.84091 6.26705 5.57386C6.26705 5.26705 6.19318 5.00142 6.04545 4.77699C5.90057 4.55256 5.7017 4.37926 5.44886 4.2571C5.19602 4.13494 4.91193 4.07386 4.59659 4.07386C4.26136 4.07386 3.96875 4.14347 3.71875 4.28267C3.47159 4.41903 3.27983 4.6108 3.14347 4.85795C3.00994 5.10511 2.94318 5.39489 2.94318 5.72727H1.9375C1.9375 5.21591 2.0554 4.76705 2.29119 4.38068C2.52699 3.99432 2.84801 3.69318 3.25426 3.47727C3.66335 3.26136 4.12216 3.15341 4.63068 3.15341C5.14205 3.15341 5.59517 3.26136 5.99006 3.47727C6.38494 3.69318 6.6946 3.98437 6.91903 4.35085C7.14347 4.71733 7.25568 5.125 7.25568 5.57386C7.25568 5.89489 7.19744 6.20881 7.08097 6.51562C6.96733 6.8196 6.76847 7.15909 6.48438 7.53409C6.20312 7.90625 5.8125 8.3608 5.3125 8.89773L3.35227 10.9943V11.0625H7.40909V12H1.90341Z" fill="black"/>
<line id="re-n-sharp-line" x1="0.273757" y1="5.5816" x2="7.98864" y2="10.6294" stroke="black"/>
</g>
</g>
</svg>
