<svg width="7" height="15" viewBox="0 0 7 15" fill="none" xmlns="http://www.w3.org/2000/svg">
<g id="sol">
<path id="sol_2" d="M3.63068 12.1193C3.13068 12.1193 2.6804 12.0199 2.27983 11.821C1.87926 11.6222 1.55824 11.3494 1.31676 11.0028C1.07528 10.6562 0.943182 10.2614 0.920455 9.81818H1.94318C1.98295 10.2131 2.16193 10.5398 2.48011 10.7983C2.80114 11.054 3.18466 11.1818 3.63068 11.1818C3.98864 11.1818 4.30682 11.098 4.58523 10.9304C4.86648 10.7628 5.08665 10.5327 5.24574 10.2401C5.40767 9.9446 5.48864 9.6108 5.48864 9.23864C5.48864 8.85795 5.40483 8.51847 5.23722 8.22017C5.07244 7.91903 4.84517 7.68182 4.5554 7.50852C4.26563 7.33523 3.93466 7.24716 3.5625 7.24432C3.29545 7.24148 3.02131 7.28267 2.74006 7.3679C2.45881 7.45028 2.22727 7.55682 2.04545 7.6875L1.05682 7.56818L1.58523 3.27273H6.11932V4.21023H2.47159L2.16477 6.78409H2.21591C2.39489 6.64205 2.61932 6.52415 2.8892 6.4304C3.15909 6.33665 3.44034 6.28977 3.73295 6.28977C4.26705 6.28977 4.7429 6.41761 5.16051 6.6733C5.58097 6.92614 5.91051 7.27273 6.14915 7.71307C6.39062 8.15341 6.51136 8.65625 6.51136 9.22159C6.51136 9.77841 6.38636 10.2756 6.13636 10.7131C5.8892 11.1477 5.5483 11.4915 5.11364 11.7443C4.67898 11.9943 4.18466 12.1193 3.63068 12.1193Z" fill="black"/>
</g>
</svg>
